HIERARCHY
ROOT Hips
{
	OFFSET 49.148998 1.400851 51.731499
	CHANNELS 6 Xposition Yposition Zposition Xrotation Yrotation Zrotation
	JOINT spine
	{
		OFFSET 0.000000 -0.477352 8.301041
		CHANNELS 3 Xrotation Yrotation Zrotation
		JOINT spine1
		{
			OFFSET 0.000000 -0.000002 10.456497
			CHANNELS 3 Xrotation Yrotation Zrotation
			JOINT spine2
			{
				OFFSET 0.000000 -0.000002 10.019203
				CHANNELS 3 Xrotation Yrotation Zrotation
				JOINT Neck
				{
					OFFSET 0.000000 -1.226414 25.723495
					CHANNELS 3 Xrotation Yrotation Zrotation
					JOINT Head
					{
						OFFSET 0.000000 -0.000001 7.771751
						CHANNELS 3 Xrotation Yrotation Zrotation
						End Site
						{
							OFFSET 0.000000 6.203937 18.812004
						}
					}
				}
				JOINT RightShoulder
				{
					OFFSET -4.218800 0.587437 10.820000
					CHANNELS 3 Xrotation Yrotation Zrotation
					JOINT RightArm
					{
						OFFSET 0.000000 -0.000002 14.191399
						CHANNELS 3 Xrotation Yrotation Zrotation
						JOINT RightArmRoll
						{
							OFFSET 0.000000 -0.000001 7.164078
							CHANNELS 3 Xrotation Yrotation Zrotation
							JOINT RightForeArm
							{
								OFFSET 0.000000 -0.000003 20.866501
								CHANNELS 3 Xrotation Yrotation Zrotation
								JOINT RightForeArmRoll
								{
									OFFSET 0.000000 -0.000001 8.039215
									CHANNELS 3 Xrotation Yrotation Zrotation
									JOINT RightHand
									{
										OFFSET 0.000000 -0.000003 16.132996
										CHANNELS 3 Xrotation Yrotation Zrotation
										End Site
										{
											OFFSET 0.000000 0.000000 0.100006
										}
									}
								}
							}
						}
					}
				}
				JOINT LeftShoulder
				{
					OFFSET 4.218800 0.587437 10.820000
					CHANNELS 3 Xrotation Yrotation Zrotation
					JOINT LeftArm
					{
						OFFSET 0.000000 -0.000002 14.191399
						CHANNELS 3 Xrotation Yrotation Zrotation
						JOINT LeftArmRoll
						{
							OFFSET 0.000000 -0.000001 7.164078
							CHANNELS 3 Xrotation Yrotation Zrotation
							JOINT LeftForeArm
							{
								OFFSET 0.000000 -0.000003 20.866501
								CHANNELS 3 Xrotation Yrotation Zrotation
								JOINT LeftForeArmRoll
								{
									OFFSET 0.000000 -0.000001 8.039215
									CHANNELS 3 Xrotation Yrotation Zrotation
									JOINT LeftHand
									{
										OFFSET 0.000000 -0.000003 16.132996
										CHANNELS 3 Xrotation Yrotation Zrotation
										End Site
										{
											OFFSET 0.000000 0.000000 0.100006
										}
									}
								}
							}
						}
					}
				}
			}
		}
	}
	JOINT RightUpLeg
	{
		OFFSET -7.357731 1.131820 -1.349209
		CHANNELS 3 Xrotation Yrotation Zrotation
		JOINT RightUpLegRoll
		{
			OFFSET 0.000000 -0.000003 18.916798
			CHANNELS 3 Xrotation Yrotation Zrotation
			JOINT RightLeg
			{
				OFFSET 0.000000 0.000004 -23.425598
				CHANNELS 3 Xrotation Yrotation Zrotation
				JOINT RightLegRoll
				{
					OFFSET 0.000000 -0.000004 23.502304
					CHANNELS 3 Xrotation Yrotation Zrotation
					JOINT RightFoot
					{
						OFFSET 0.000000 -0.000003 19.561699
						CHANNELS 3 Xrotation Yrotation Zrotation
						JOINT RightToeBase
						{
							OFFSET 0.000000 -0.000003 16.352600
							CHANNELS 3 Xrotation Yrotation Zrotation
							End Site
							{
								OFFSET 0.006931 0.912835 7.919441
							}
						}
					}
				}
			}
		}
	}
	JOINT LeftUpLeg
	{
		OFFSET 7.357731 1.131820 -1.349209
		CHANNELS 3 Xrotation Yrotation Zrotation
		JOINT LeftUpLegRoll
		{
			OFFSET 0.000000 -0.000003 18.916904
			CHANNELS 3 Xrotation Yrotation Zrotation
			JOINT LeftLeg
			{
				OFFSET 0.000000 -0.000004 23.425499
				CHANNELS 3 Xrotation Yrotation Zrotation
				JOINT LeftLegRoll
				{
					OFFSET 0.000000 -0.000004 23.719498
					CHANNELS 3 Xrotation Yrotation Zrotation
					JOINT LeftFoot
					{
						OFFSET 0.000000 -0.000003 19.344398
						CHANNELS 3 Xrotation Yrotation Zrotation
						JOINT LeftToeBase
						{
							OFFSET 0.000000 -0.000003 16.352600
							CHANNELS 3 Xrotation Yrotation Zrotation
							End Site
							{
								OFFSET -0.031063 0.912836 7.919434
							}
						}
					}
				}
			}
		}
	}
}
MOTION
Frames: 6
Frame Time: 0.041667
46.825508 -34.419315 98.941589 -3.348909 0.250958 1.849345 -1.289671 -0.113958 0.148978 1.423751 -0.229019 0.296495 3.068834 -0.225452 0.299217 17.917120 0.078963 -2.237550 -6.698239 -0.237546 -2.224958 -5.360129 -73.720759 -7.569312 -75.869400 -111.460136 -48.821219 -0.000001 0.000000 0.000001 0.068075 -8.541925 -0.226454 0.000001 0.000003 -3.074349 -5.000221 -7.998925 0.000137 4.036322 63.937886 -3.962157 -43.494399 108.287875 25.788453 -0.000001 0.000000 0.000001 0.114541 9.650142 0.513979 0.000002 -0.000006 3.007369 -5.000234 7.998824 -0.000155 2.352343 -176.780705 0.582264 -179.999991 0.000005 -1.149994 174.265119 -3.147202 -0.622915 -0.000001 0.000002 0.067727 69.084406 6.921258 2.045009 25.456916 -7.348257 0.000001 1.749316 173.576977 -0.445942 -0.000005 -0.000005 -1.242290 -10.125433 2.720790 1.007552 -0.000005 0.000002 -0.136111 68.669014 -6.933247 -2.012567 25.456897 7.348016 0.000004 
46.813210 -34.397015 98.943092 -3.349671 0.256122 1.832391 -1.289613 -0.114527 0.149601 1.423882 -0.230636 0.297733 3.068964 -0.227054 0.300474 17.958825 0.088686 -2.228745 -6.725167 -0.245288 -2.215744 -5.310963 -73.741161 -7.517433 -75.954149 -111.527885 -48.936567 0.000002 -0.000001 -0.000000 0.068079 -8.541094 -0.225286 0.000001 0.000002 -3.074219 -5.000225 -7.998923 0.000138 4.014866 63.947298 -3.936462 -43.540916 108.298414 25.865751 -0.000001 0.000000 0.000000 0.150777 9.664800 0.507359 0.000003 -0.000006 3.007370 -5.000228 7.998824 -0.000154 2.332075 -176.787644 0.576612 -179.999991 0.000005 -1.149994 174.241336 -3.147072 -0.624220 -0.000001 0.000001 0.067725 69.090430 6.921257 2.045732 25.456916 -7.348258 0.000001 1.732734 173.563904 -0.458695 -0.000005 -0.000005 -1.242290 -10.151545 2.730197 1.009130 -0.000005 0.000002 -0.136562 68.682620 -6.933252 -2.012614 25.456901 7.348014 0.000005 
46.813309 -34.382820 98.941284 -3.350604 0.261397 1.814793 -1.289610 -0.115100 0.150203 1.423892 -0.232291 0.298924 3.068974 -0.228694 0.301685 18.001930 0.099079 -2.219696 -6.752798 -0.253451 -2.206240 -5.259743 -73.761904 -7.463339 -76.038707 -111.596166 -49.050918 0.000000 -0.000000 -0.000000 0.068079 -8.539485 -0.224232 0.000001 0.000001 -3.074100 -5.000220 -7.998923 0.000136 3.991902 63.957441 -3.908945 -43.585496 108.308427 25.940799 -0.000001 0.000001 0.000001 0.186316 9.679791 0.500608 0.000002 -0.000006 3.007369 -5.000233 7.998823 -0.000155 2.311367 -176.795608 0.570727 -179.999991 0.000005 -1.148997 174.216378 -3.145941 -0.625490 -0.000001 0.000001 0.067722 69.096878 6.921277 2.046533 25.456916 -7.348258 0.000001 1.717113 173.550872 -0.471520 -0.000005 -0.000005 -1.242300 -10.176754 2.739676 1.010672 -0.000005 0.000002 -0.137007 68.696219 -6.933257 -2.012663 25.456899 7.348015 0.000004 
46.793606 -34.381519 98.936089 -3.351635 0.266750 1.796732 -1.289653 -0.115676 0.150788 1.423822 -0.233973 0.300083 3.068905 -0.230361 0.302865 18.045833 0.109944 -2.210470 -6.780900 -0.261913 -2.196532 -5.207008 -73.782777 -7.407624 -76.123326 -111.664953 -49.164835 0.000001 0.000001 0.000002 0.068078 -8.537316 -0.223251 -0.000002 0.000002 -3.073999 -5.000222 -7.998922 0.000136 3.967895 63.968212 -3.880166 -43.630695 108.317320 26.016465 0.000000 -0.000001 -0.000000 0.221366 9.695019 0.493766 0.000002 -0.000006 3.007369 -5.000230 7.998823 -0.000155 2.290364 -176.803545 0.564713 -179.999991 0.000005 -1.148997 174.190601 -3.144805 -0.626804 -0.000002 0.000001 0.067717 69.103858 6.921289 2.047198 25.456912 -7.348258 0.000001 1.702158 173.537826 -0.484396 -0.000005 -0.000005 -1.242300 -10.201165 2.749192 1.012181 -0.000004 0.000002 -0.137448 68.709825 -6.933252 -2.012710 25.456899 7.348016 0.000005 
46.805908 -34.365417 98.938591 -3.352736 0.272146 1.778403 -1.289711 -0.116254 0.151364 1.423702 -0.235669 0.301224 3.068785 -0.232045 0.304025 18.090243 0.121088 -2.201154 -6.809287 -0.270549 -2.186715 -5.153342 -73.803739 -7.350910 -76.207303 -111.734006 -49.277902 -0.000001 -0.000000 -0.000001 0.068076 -8.534835 -0.222322 0.000000 0.000003 -3.073908 -5.000223 -7.998924 0.000140 3.943252 63.979304 -3.850623 -43.674921 108.325953 26.091092 -0.000001 -0.000001 0.000001 0.256139 9.710395 0.486859 -0.000000 -0.000006 3.007369 -5.000232 7.998823 -0.000154 2.269183 -176.811495 0.558628 -179.999991 0.000005 -1.148996 174.164319 -3.144658 -0.628245 -0.000001 0.000001 0.067713 69.110921 6.921270 2.048052 25.456916 -7.348259 0.000001 1.687597 173.525792 -0.497268 -0.000005 -0.000005 -1.242300 -10.225276 2.758728 1.013682 -0.000004 0.000002 -0.137885 68.723437 -6.933246 -2.012755 25.456899 7.348017 0.000005 
46.779709 -34.330017 98.938995 -3.353848 0.277555 1.760015 -1.289783 -0.116831 0.151937 1.423572 -0.237370 0.302360 3.068655 -0.233731 0.305181 18.134750 0.132311 -2.191834 -6.837729 -0.279236 -2.176883 -5.099363 -73.824701 -7.293864 -76.290727 -111.803100 -49.390225 0.000001 0.000000 -0.000001 0.068075 -8.532264 -0.221400 0.000002 0.000002 -3.073820 -5.000225 -7.998922 0.000138 3.918451 63.990383 -3.820890 -43.718852 108.334539 26.165458 -0.000001 0.000001 0.000000 0.290851 9.725798 0.479920 0.000002 -0.000006 3.007369 -5.000231 7.998823 -0.000155 2.247961 -176.819432 0.552529 -179.999991 0.000005 -1.148996 174.137954 -3.143505 -0.629589 -0.000001 0.000001 0.067708 69.118017 6.921319 2.048818 25.456921 -7.348259 0.000002 1.673126 173.512746 -0.510171 -0.000005 -0.000004 -1.242310 -10.249188 2.768282 1.015184 -0.000005 0.000002 -0.138323 68.736941 -6.933264 -2.012811 25.456892 7.348015 0.000004 
